<?xml version="1.0" encoding="UTF-8"?>
<!-- Uploaded to: SVG Find, www.svgfind.com, Generator: SVG Find Mixer Tools -->
<svg fill="#000000" width="800px" height="800px" version="1.1" viewBox="144 144 512 512" xmlns="http://www.w3.org/2000/svg">
 <g>
  <path d="m352.77 250.43c-10.434 0.011718-20.438 4.1641-27.816 11.543-7.3789 7.3789-11.531 17.383-11.543 27.816 0 15.23 22.043 53.875 39.359 80.352 17.32-26.48 39.359-65.125 39.359-80.352-0.011719-10.434-4.1602-20.438-11.539-27.816-7.3789-7.3789-17.383-11.531-27.82-11.543zm0 62.977c-6.2617 0-12.27-2.4883-16.699-6.918-4.4297-4.4297-6.918-10.434-6.918-16.699 0-6.2617 2.4883-12.27 6.918-16.699 4.4297-4.4258 10.438-6.9141 16.699-6.9141 6.2656 0 12.27 2.4883 16.699 6.9141 4.4297 4.4297 6.918 10.438 6.918 16.699 0 6.2656-2.4883 12.27-6.918 16.699-4.4297 4.4297-10.434 6.918-16.699 6.918z"/>
  <path d="m360.64 289.79c0 4.3477-3.5234 7.875-7.8711 7.875s-7.8711-3.5273-7.8711-7.875c0-4.3477 3.5234-7.8711 7.8711-7.8711s7.8711 3.5234 7.8711 7.8711"/>
  <path d="m557.44 455.1v-251.9c-0.015625-6.2578-2.5117-12.254-6.9375-16.68-4.4219-4.4258-10.418-6.918-16.676-6.9375h-251.91c-6.2578 0.019531-12.254 2.5117-16.68 6.9375-4.4219 4.4258-6.918 10.422-6.9375 16.68v261.59l12.832-22.355c0.87891-1.4531 1.8555-2.8477 2.9141-4.1719v-219.32c0.019531-6.2578 2.5117-12.254 6.9375-16.68 4.4258-4.4219 10.422-6.918 16.68-6.9375h56.441c6.207 0.015625 12.164 2.4414 16.609 6.7734l6.6914 6.6914v-0.003906c1.4688 1.4492 3.4453 2.2695 5.5117 2.2852h49.91-0.003906c2.1016-0.023437 4.1094-0.87109 5.5898-2.3633l6.5352-6.5352v0.003906c4.457-4.375 10.445-6.832 16.688-6.8516h56.441c6.2578 0.019531 12.254 2.5156 16.68 6.9375 4.4258 4.4258 6.918 10.422 6.9375 16.68v240.57c4.7539-2.8633 10.195-4.3867 15.742-4.4102zm-141.7-251.9h-15.742c-4.3477 0-7.875-3.5273-7.875-7.875 0-4.3477 3.5273-7.8711 7.875-7.8711h15.742c4.3477 0 7.8711 3.5234 7.8711 7.8711 0 4.3477-3.5234 7.875-7.8711 7.875z"/>
  <path d="m470.85 305.54c0 4.3477-3.5234 7.8711-7.8711 7.8711-4.3477 0-7.875-3.5234-7.875-7.8711s3.5273-7.8711 7.875-7.8711c4.3477 0 7.8711 3.5234 7.8711 7.8711"/>
  <path d="m486.59 329.15h39.359v-110.21c0-2.0859-0.82812-4.0898-2.3047-5.5664-1.4766-1.4766-3.4766-2.3047-5.5664-2.3047h-31.488v55.105c0 4.3477-3.5234 7.8711-7.8711 7.8711s-7.8711-3.5234-7.8711-7.8711v-55.105h-9.2109c-2.1016 0.023438-4.1094 0.87109-5.5898 2.3594l-0.94531 0.86719v51.879c0 4.3477-3.5234 7.8711-7.8711 7.8711-4.3477 0-7.8711-3.5234-7.8711-7.8711v-40.387c-2.1172 0.66016-4.3164 1.0039-6.5352 1.0234h-49.906c-6.207-0.011719-12.164-2.4375-16.613-6.7695l-6.6914-6.6914c-1.4688-1.4453-3.4453-2.2656-5.5078-2.2812h-56.441c-4.3477 0-7.875 3.5234-7.875 7.8711v157.44h39.359c4.3477 0 7.875 3.5234 7.875 7.8711s-3.5273 7.8711-7.875 7.8711h-39.359v15.742l86.594 0.003906c2.0859 0 4.0898 0.82812 5.5664 2.3047 1.4766 1.4766 2.3047 3.4805 2.3047 5.5664v55.105c0 4.3477-3.5234 7.8711-7.8711 7.8711-4.3477 0-7.8711-3.5234-7.8711-7.8711v-47.234h-78.723v4.25h0.15625l0.003907 0.003907c7.9609-2.207 16.48-1.0977 23.613 3.0703 7.5469 4.1992 13.078 11.266 15.352 19.598 2.2031 8.0859 1.0352 16.719-3.2266 23.934-8.8164 15.191-20.152 34.715-25.031 43.219l7.0078 10.312-0.003906-0.003906c12.133 17.844 17.184 39.566 14.168 60.93h79.035l-44.711-81.16c-2.0859-3.7422-0.78906-8.4688 2.9102-10.625l13.699-7.8711v-0.003906c9.0078-5.2734 19.766-6.6914 29.836-3.9336 10.102 2.6836 18.715 9.2852 23.93 18.34l4.9609 8.6602v-120.21c0-11.25 6-21.645 15.742-27.27 9.7422-5.625 21.746-5.625 31.488 0s15.742 16.02 15.742 27.27v67.387c4.7461-2.8828 10.191-4.4102 15.746-4.4102 5.5508 0 11 1.5273 15.742 4.4102v-83.129h-15.742c-4.3477 0-7.8711-3.5234-7.8711-7.8711 0-4.3477 3.5234-7.875 7.8711-7.875h15.742v-15.742h-39.359c-4.3477 0-7.8711-3.5234-7.8711-7.8711 0-4.3477 3.5234-7.875 7.8711-7.875zm-128.26 155.14-13.438 13.438v59.715h23.617c4.3477 0 7.8711 3.5273 7.8711 7.875s-3.5234 7.8711-7.8711 7.8711h-31.488c-4.3477 0-7.875-3.5234-7.875-7.8711v-70.852c0.003906-2.0859 0.83203-4.0859 2.3086-5.5625l15.742-15.742v-0.003906c3.0898-2.9805 8-2.9414 11.035 0.097656 3.0391 3.0352 3.082 7.9453 0.097656 11.035zm-5.5664-92.16c-2.5859 0-5.0078-1.2695-6.4766-3.3984-4.9766-7.2031-48.625-71.203-48.625-98.938 0-19.688 10.5-37.879 27.551-47.719 17.047-9.8438 38.055-9.8438 55.105 0 17.047 9.8398 27.551 28.031 27.551 47.719 0 27.734-43.648 91.734-48.625 98.938-1.4688 2.1289-3.8906 3.3984-6.4805 3.3984zm62.977 31.488v47.234c0 4.3477-3.5234 7.8711-7.8711 7.8711s-7.8711-3.5234-7.8711-7.8711v-55.105c0-4.3477 3.5234-7.8711 7.8711-7.8711h7.8711c4.3477 0 7.8711 3.5234 7.8711 7.8711 0 4.3477-3.5234 7.8711-7.8711 7.8711zm23.617-78.719h-15.746v39.359c0 2.0898-0.82812 4.0898-2.3047 5.5664-1.4766 1.4766-3.4766 2.3047-5.5664 2.3047h-39.359c-4.3477 0-7.8711-3.5234-7.8711-7.8711s3.5234-7.8711 7.8711-7.8711h31.488v-39.359c0-4.3477 3.5234-7.875 7.8711-7.875h23.617c4.3477 0 7.8711 3.5273 7.8711 7.875 0 4.3477-3.5234 7.8711-7.8711 7.8711zm31.488-17.191v17.191c0 4.3477-3.5234 7.8711-7.8711 7.8711-4.3477 0-7.875-3.5234-7.875-7.8711v-17.191c-7.0586-2.4961-12.516-8.1953-14.707-15.355-2.1953-7.1602-0.85938-14.934 3.5938-20.957 4.4531-6.0195 11.496-9.5703 18.988-9.5703 7.4883 0 14.531 3.5508 18.984 9.5703 4.4531 6.0234 5.7891 13.797 3.5938 20.957-2.1914 7.1602-7.6484 12.859-14.707 15.355z"/>
  <path d="m318.13 604.67c-1.6953 5.2969-3.9102 10.41-6.6133 15.27l-0.31641 0.47266h106.98l-8.6602-15.742z"/>
  <path d="m290.81 624.35 7.0078-12.203c6.5625-11.578 9.7539-24.766 9.2109-38.066s-4.7969-26.18-12.281-37.188l-9.918-14.328c-1.7109-2.5156-1.832-5.7891-0.31641-8.4219 0 0 15.902-27.551 27.551-47.547 2.0977-3.6211 2.6914-7.918 1.6562-11.969-1.0859-4.1445-3.8164-7.6719-7.5586-9.7617-3.6133-2.2656-8.0078-2.9219-12.121-1.8086-3.9219 1.0273-7.2539 3.6133-9.2109 7.1641l-27.551 48.176h-0.003906c-1.8086 3.0781-5.4375 4.5898-8.8945 3.6992-3.4492-0.92969-5.8398-4.0625-5.8242-7.6367v-113.67l-35.898 38.969c-17.445 18.879-27.117 43.648-27.078 69.352v139.18h110.33c-0.046875-1.3711 0.26562-2.7266 0.90234-3.9375z"/>
  <path d="m604.67 494.46c-4.1719 0.015624-8.168 1.6758-11.121 4.625-2.9492 2.9531-4.6094 6.9492-4.625 11.121v7.8711c0 4.3477-3.5234 7.8711-7.8711 7.8711-4.3477 0-7.8711-3.5234-7.8711-7.8711v-31.488c0-5.625-3-10.82-7.8711-13.633s-10.875-2.8125-15.746 0-7.8711 8.0078-7.8711 13.633v31.488c0 4.3477-3.5234 7.8711-7.8711 7.8711-4.3477 0-7.875-3.5234-7.875-7.8711v-31.488c0-5.625-3-10.82-7.8711-13.633s-10.871-2.8125-15.742 0c-4.8711 2.8125-7.875 8.0078-7.875 13.633v31.488c0 4.3477-3.5234 7.8711-7.8711 7.8711s-7.8711-3.5234-7.8711-7.8711v-125.95c0-5.625-3-10.82-7.8711-13.633s-10.875-2.8125-15.746 0c-4.8711 2.8125-7.8711 8.0078-7.8711 13.633v149.57c0.015625 3.5703-2.375 6.707-5.8242 7.6367-3.457 0.875-7.0781-0.63281-8.8945-3.6992l-19.68-34.086h-0.003906c-3.1289-5.4102-8.2734-9.3594-14.309-10.984-6.0352-1.6211-12.465-0.78516-17.887 2.3242l-7.0078 4.0156 64.785 117.61 0.003906-0.003907c0.59766 1.168 0.88672 2.4688 0.84375 3.7812h181.16v-118.08c-0.011718-4.1719-1.6758-8.168-4.625-11.121-2.9492-2.9492-6.9453-4.6094-11.117-4.625z"/>
 </g>
</svg>