<?xml version="1.0" encoding="UTF-8"?>
<!-- Uploaded to: SVG Find, www.svgfind.com, Generator: SVG Find Mixer Tools -->
<svg fill="#000000" width="800px" height="800px" version="1.1" viewBox="144 144 512 512" xmlns="http://www.w3.org/2000/svg">
 <g>
  <path d="m522.79 233.57c3.7031 17.758 14.793 28.363 29.645 28.363 14.762 0 26.973-11.793 29.703-28.672 0.74219-4.5703 2.7617-17.977 3.2109-25.094 0.53516-8.375-2.4297-16.461-8.3477-22.766-6.332-6.7578-15.285-10.625-24.562-10.625-9.2852 0-18.238 3.875-24.57 10.625-5.918 6.3086-8.8867 14.395-8.3477 22.777 0.43359 6.6211 1.9531 19.164 3.2695 25.391zm15.359-38.527c3.6719-3.918 8.8828-6.168 14.281-6.168 5.3906 0 10.594 2.2422 14.273 6.168 3.2227 3.4414 4.8398 7.7773 4.5547 12.219v0.015625c-0.36328 5.8086-2.0625 17.633-3.0469 23.723-1.3555 8.375-6.7578 16.82-15.781 16.82-10.664 0-14.5-10.734-15.84-17.148-1.1797-5.5938-2.6094-17.383-3.0039-23.406-0.27734-4.4414 1.3398-8.7812 4.5625-12.223z"/>
  <path d="m478.53 334.72c1.3398 1.5938 3.3164 2.5195 5.4023 2.5195h134.46c2.082 0 4.0625-0.92578 5.4023-2.5195 1.3398-1.5938 1.9062-3.6992 1.5469-5.7539l-4.1211-23.547c-4.1211-21.375-23.059-36.891-45.031-36.891h-50.027c-22.031 0-40.977 15.574-45.066 37.117l-4.1094 23.316c-0.35938 2.0547 0.20703 4.1602 1.5469 5.7578zm16.434-26.539c2.8164-14.801 15.93-25.539 31.191-25.539h50.027c15.219 0 28.336 10.699 31.156 25.328l2.6562 15.16h-117.66z"/>
  <path d="m220.48 233.57c3.7031 17.758 14.793 28.363 29.645 28.363 14.762 0 26.973-11.793 29.703-28.672 0.74219-4.5703 2.7617-17.977 3.2109-25.094 0.53516-8.375-2.4297-16.461-8.3477-22.766-6.332-6.7578-15.285-10.625-24.562-10.625-9.2852 0-18.238 3.875-24.57 10.625-5.918 6.3086-8.8867 14.395-8.3477 22.777 0.43359 6.6211 1.9531 19.164 3.2695 25.391zm15.359-38.527c3.6719-3.918 8.8828-6.168 14.281-6.168 5.3906 0 10.594 2.2422 14.273 6.168 3.2227 3.4414 4.8398 7.7773 4.5547 12.219v0.015625c-0.36328 5.8086-2.0625 17.633-3.0547 23.723-1.3516 8.375-6.7578 16.82-15.781 16.82-10.664 0-14.5-10.734-15.84-17.148-1.1797-5.5938-2.6094-17.383-3.0039-23.406-0.26953-4.4414 1.3477-8.7812 4.5703-12.223z"/>
  <path d="m181.61 337.24h134.45c2.082 0 4.0625-0.92578 5.4023-2.5195s1.9062-3.6992 1.5469-5.7539l-4.1211-23.547c-4.1211-21.375-23.059-36.891-45.031-36.891h-50.027c-22.031 0-40.977 15.574-45.066 37.117l-4.1055 23.316c-0.35937 2.0508 0.20703 4.1562 1.5469 5.7578 1.3398 1.5938 3.3164 2.5195 5.4023 2.5195zm11.031-29.059c2.8164-14.801 15.93-25.539 31.191-25.539h50.027c15.219 0 28.336 10.699 31.156 25.328l2.6562 15.16h-117.66z"/>
  <path d="m527.87 473.38c-5.918 6.3086-8.8867 14.395-8.3477 22.777 0.4375 6.6211 1.9648 19.164 3.2734 25.391 3.7031 17.758 14.793 28.363 29.645 28.363 14.762 0 26.973-11.793 29.703-28.672 0.74219-4.5703 2.7617-17.977 3.2109-25.09 0.53516-8.375-2.4297-16.461-8.3477-22.773-6.332-6.7578-15.285-10.625-24.562-10.625-9.2891 0.003906-18.242 3.8789-24.574 10.629zm43.395 21.867v0.015625c-0.36328 5.8086-2.0625 17.633-3.0469 23.723-1.3555 8.375-6.7578 16.82-15.781 16.82-10.664 0-14.5-10.734-15.84-17.148-1.1797-5.5938-2.6094-17.383-3.0039-23.406-0.28906-4.4375 1.3359-8.7773 4.5547-12.219 3.6719-3.918 8.8828-6.168 14.281-6.168 5.3906 0 10.594 2.2422 14.273 6.168 3.2305 3.4375 4.8516 7.7734 4.5625 12.215z"/>
  <path d="m621.21 593.41c-4.1211-21.375-23.059-36.891-45.031-36.891h-50.027c-22.031 0-40.977 15.574-45.066 37.117l-4.1016 23.316c-0.35938 2.0508 0.20703 4.1562 1.5469 5.7578 1.3398 1.5938 3.3164 2.5195 5.4023 2.5195h134.46c2.082 0 4.0625-0.92578 5.4023-2.5195 1.3398-1.5938 1.9062-3.6992 1.5469-5.7539zm-128.88 17.703 2.625-14.949c2.8164-14.801 15.93-25.539 31.191-25.539h50.027c15.219 0 28.336 10.699 31.156 25.328l2.6562 15.16z"/>
  <path d="m315.14 390.12 13.473 5.0547c-0.50391 5.8633-0.31641 11.684 0.58594 17.352l-13.121 5.9531c1.2891 6.3594 3.2812 12.625 6.0273 18.676 2.7461 6.0508 6.1523 11.684 10.098 16.852l13.098-5.9492c3.6875 4.3984 7.9297 8.4023 12.664 11.859l-5.0547 13.457c5.4141 3.6016 11.238 6.6211 17.48 8.957 6.2031 2.3359 12.555 3.9297 19.027 4.8047l5.0781-13.492c5.8477 0.51562 11.652 0.3125 17.34-0.57813l5.9141 13.039c13-2.6367 25.113-8.2461 35.492-16.176l-5.875-12.957c4.418-3.6797 8.4023-7.9336 11.871-12.664l13.422 5.0273c3.6367-5.3711 6.6445-11.23 8.9922-17.457 2.332-6.2109 3.918-12.594 4.7812-19.004l-13.461-5.082c0.51562-5.8359 0.30859-11.656-0.57031-17.348l13.113-5.9336c-1.3164-6.3789-3.293-12.637-6.0352-18.688-2.7461-6.0703-6.1523-11.688-10.086-16.848l-13.121 5.9336c-3.6719-4.3867-7.918-8.3945-12.66-11.859l5.0664-13.461c-5.4102-3.5703-11.246-6.5938-17.477-8.9531-6.2031-2.3008-12.574-3.9258-19.027-4.793l-5.0742 13.473c-5.8594-0.52344-11.668-0.3125-17.352 0.58984l-5.9141-13.039c-12.988 2.6445-25.121 8.2383-35.492 16.188l5.8633 12.938c-4.3984 3.6992-8.3945 7.957-11.848 12.676l-13.43-5.0312c-3.6289 5.3906-6.6484 11.23-8.9844 17.461-2.3555 6.2109-3.9258 12.598-4.8047 19.023zm85.426-22.137c18.516-0.10938 33.621 14.793 33.746 33.277 0.12109 18.52-14.801 33.625-33.285 33.738-18.531 0.125-33.645-14.766-33.75-33.297-0.11719-18.492 14.785-33.613 33.289-33.719z"/>
  <path d="m248.88 344.52-51.316 43.73 19.605 23.004 16.68-14.207v53.641h30.227v-53.574l16.461 13.996 19.582-23.031z"/>
  <path d="m584.11 388.52-16.68 14.215v-53.641h-30.23v53.57l-16.457-13.996-19.582 23.027 51.234 43.559 51.32-43.73z"/>
  <path d="m250.12 462.76c-9.2852 0-18.238 3.875-24.57 10.625-5.918 6.3086-8.8867 14.395-8.3477 22.777 0.4375 6.6211 1.9648 19.164 3.2734 25.391 3.7031 17.758 14.793 28.363 29.645 28.363 14.762 0 26.973-11.793 29.703-28.672 0.74219-4.5703 2.7617-17.977 3.2109-25.09 0.53516-8.375-2.4297-16.461-8.3477-22.773-6.3398-6.7461-15.293-10.621-24.566-10.621zm18.828 32.508c-0.36328 5.8086-2.0625 17.633-3.0547 23.723-1.3516 8.375-6.7578 16.82-15.781 16.82-10.664 0-14.5-10.734-15.84-17.148-1.1797-5.5938-2.6094-17.383-3.0039-23.406-0.28906-4.4375 1.3359-8.7773 4.5547-12.219 3.6719-3.918 8.8828-6.168 14.281-6.168 5.3906 0 10.594 2.2422 14.273 6.168 3.2227 3.4414 4.8398 7.7773 4.5547 12.219 0.015625 0 0.015625 0.003906 0.015625 0.011719z"/>
  <path d="m318.89 593.41c-4.1211-21.375-23.059-36.891-45.031-36.891h-50.027c-22.031 0-40.977 15.574-45.066 37.117l-4.1016 23.316c-0.35937 2.0508 0.20703 4.1562 1.5469 5.7578 1.3398 1.5938 3.3164 2.5195 5.4023 2.5195h134.45c2.082 0 4.0625-0.92578 5.4023-2.5195s1.9062-3.6992 1.5469-5.7539zm-128.88 17.703 2.625-14.949c2.8164-14.801 15.93-25.539 31.191-25.539h50.027c15.219 0 28.336 10.699 31.156 25.328l2.6562 15.16z"/>
  <path d="m391.48 521.32-23.035-19.582-43.555 51.238 43.727 51.316 23.008-19.602-14.211-16.676h98.984v-30.23h-98.914z"/>
  <path d="m414.05 281.67 23.027 19.578 43.562-51.238-43.73-51.312-23.004 19.605 14.211 16.676h-98.984v30.227h98.914z"/>
 </g>
</svg>