<!DOCTYPE svg PUBLIC "-//W3C//DTD SVG 1.1//EN" "http://www.w3.org/Graphics/SVG/1.1/DTD/svg11.dtd">
<!-- Uploaded to: SVG Find, www.svgfind.com, Transformed by: SVG Find Mixer Tools -->
<svg fill="#779673" width="800px" height="800px" version="1.1" viewBox="144 144 512 512" xmlns="http://www.w3.org/2000/svg" stroke="#779673">
<g id="SVGRepo_bgCarrier" stroke-width="0"/>
<g id="SVGRepo_tracerCarrier" stroke-linecap="round" stroke-linejoin="round"/>
<g id="SVGRepo_iconCarrier"> <path d="m421.57 388.95h198.82c2.9609 0 5.7812-1.25 7.7734-3.4414 1.9922-2.1875 2.9727-5.1172 2.6953-8.0664-5.1094-53.516-28.695-103.58-66.711-141.6-38.016-38.012-88.082-61.602-141.6-66.711-2.9453-0.27734-5.875 0.69922-8.0664 2.6953-2.1875 1.9922-3.4375 4.8125-3.4375 7.7734v198.83c-0.003906 2.7891 1.1055 5.4648 3.0781 7.4414 1.9727 1.9727 4.6484 3.0781 7.4414 3.0781zm10.52-197.46c44.383 6.7305 85.449 27.484 117.19 59.227 31.742 31.746 52.496 72.809 59.227 117.2h-176.42zm-42.082 199.27v-211.16c0-2.9609-1.25-5.7812-3.4414-7.7734-2.1875-1.9922-5.1172-2.9727-8.0625-2.6953-56.043 5.3477-108.21 30.941-146.74 71.988-38.527 41.047-60.77 94.734-62.559 151-1.7891 56.27 16.992 111.26 52.832 154.67 1.8828 2.2891 4.6445 3.6719 7.6016 3.8125 0.17578 0.011719 0.33984 0.011719 0.50391 0.011719 2.793 0.003907 5.4688-1.1055 7.4414-3.082l149.34-149.34c1.9727-1.9727 3.082-4.6484 3.082-7.4375zm-21.039-4.3555-137.85 137.84c-28.773-39.062-43.16-86.867-40.727-135.32 2.4336-48.457 21.543-94.582 54.086-130.56 32.543-35.98 76.523-59.609 124.49-66.879zm251.43 23.59-211.15-0.003906c-2.793 0-5.4688 1.1094-7.4414 3.082l-149.34 149.35c-2.0977 2.0938-3.2109 4.9727-3.0703 7.9336 0.14062 2.9609 1.5234 5.7227 3.8125 7.6094 43.414 35.84 98.402 54.625 154.67 52.832 56.266-1.7891 109.95-24.031 151-62.559 41.047-38.531 66.641-90.699 71.988-146.74 0.27734-2.9492-0.70312-5.875-2.6953-8.0664-1.9922-2.1875-4.8125-3.4375-7.7734-3.4414zm-219.87 199.88c-44.895-0.023438-88.609-14.387-124.77-40.992l137.84-137.85h194.92c-7.3359 49.852-32.41 95.383-70.617 128.23-38.207 32.855-86.98 50.824-137.37 50.609zm10.52-42.082h0.003906c0 2.793-1.1094 5.4688-3.082 7.4414-1.9727 1.9727-4.6484 3.082-7.4414 3.0781h-52.602c-5.7969-0.015625-10.484-4.7227-10.484-10.52 0-5.7969 4.6875-10.5 10.484-10.52h52.602c2.793 0 5.4688 1.1055 7.4414 3.0781s3.082 4.6523 3.082 7.4414zm63.121 0c0.003906 2.793-1.1055 5.4688-3.0781 7.4414-1.9727 1.9727-4.6484 3.082-7.4414 3.0781h-21.039c-5.7969-0.015625-10.488-4.7227-10.488-10.52 0-5.7969 4.6914-10.5 10.488-10.52h21.039c2.793 0 5.4688 1.1055 7.4414 3.0781 1.9727 1.9766 3.082 4.6523 3.0781 7.4414zm52.602-42.082c0.003907 2.793-1.1055 5.4688-3.0781 7.4414-1.9727 1.9727-4.6523 3.082-7.4414 3.082h-147.28c-5.7969-0.019531-10.488-4.7227-10.488-10.523 0-5.7969 4.6914-10.5 10.488-10.52h147.28c2.7891 0 5.4688 1.1055 7.4414 3.082 1.9727 1.9727 3.082 4.6484 3.0781 7.4375zm-115.72-52.598h147.28c5.8086 0 10.52 4.707 10.52 10.52 0 5.8086-4.7109 10.52-10.52 10.52h-147.28c-5.8125 0-10.523-4.7109-10.523-10.52 0-5.8125 4.7109-10.52 10.523-10.52zm-178.84-147.29c-2.7891 0-5.4688 1.1055-7.4414 3.0781s-3.082 4.6523-3.0781 7.4414v42.082c-5.7969 0.019531-10.488 4.7227-10.488 10.52 0 5.7969 4.6914 10.504 10.488 10.52h105.2-0.003906c5.8008-0.015625 10.488-4.7227 10.488-10.52 0-5.7969-4.6875-10.5-10.488-10.52v-94.684c0.003906-2.7891-1.1055-5.4648-3.0781-7.4414-1.9727-1.9727-4.6484-3.0781-7.4414-3.0781h-42.078c-2.793 0-5.4688 1.1055-7.4414 3.0781-1.9727 1.9766-3.082 4.6523-3.082 7.4414v42.082zm10.52 21.039h21.039v31.562h-21.039zm42.082-52.602h21.039v84.16l-21.039 0.003906zm273.52 31.562c0 2.7891-1.1055 5.4688-3.082 7.4414-1.9727 1.9727-4.6484 3.082-7.4375 3.0781h-84.164c-5.8086 0-10.52-4.7109-10.52-10.52 0-5.8086 4.7109-10.52 10.52-10.52h10.52v-52.602c-0.007813-2.7969 1.0977-5.4805 3.0703-7.4609 1.9766-1.9805 4.6562-3.0938 7.4531-3.0938 2.793 0 5.4766 1.1133 7.4492 3.0938 1.9727 1.9805 3.0781 4.6641 3.0703 7.4609v52.602h21.039v-31.562c0-5.8086 4.7109-10.52 10.52-10.52 5.8125 0 10.52 4.7109 10.52 10.52v31.562h10.523c2.7891-0.003907 5.4648 1.1055 7.4375 3.0781 1.9766 1.9727 3.082 4.6523 3.082 7.4414z"/> </g>
</svg>