<?xml version="1.0" encoding="UTF-8"?>
<!-- Uploaded to: SVG Find, www.svgfind.com, Generator: SVG Find Mixer Tools -->
<svg width="800px" height="800px" version="1.1" viewBox="144 144 512 512" xmlns="http://www.w3.org/2000/svg">
 <defs>
  <clipPath id="b">
   <path d="m562 283h89.902v157h-89.902z"/>
  </clipPath>
  <clipPath id="a">
   <path d="m148.09 452h89.906v156h-89.906z"/>
  </clipPath>
 </defs>
 <path d="m638.76 638.05h-63.055c-4.25 0-7.6367-3.3867-7.6367-7.6367v-199c0-4.25 3.3867-7.6367 7.6367-7.6367h63.055c4.25 0 7.6367 3.3867 7.6367 7.6367v199c0 4.2539-3.3867 7.6367-7.6367 7.6367zm-55.418-15.27h47.781v-183.73h-47.781z"/>
 <path d="m535.16 638.05h-63.055c-4.25 0-7.6367-3.3867-7.6367-7.6367v-159.56c0-4.25 3.3867-7.6367 7.6367-7.6367h63.055c4.25 0 7.6367 3.3867 7.6367 7.6367v159.57c0 4.25-3.3867 7.6328-7.6367 7.6328zm-55.418-15.27h47.781v-144.29h-47.781z"/>
 <path d="m431.57 638.05h-63.055c-4.25 0-7.6367-3.3867-7.6367-7.6367v-112.09c0-4.25 3.3867-7.6367 7.6367-7.6367h63.055c4.25 0 7.6367 3.3867 7.6367 7.6367v112.1c0 4.25-3.4648 7.6328-7.6367 7.6328zm-55.5-15.27h47.781l0.003906-96.828h-47.781z"/>
 <path d="m327.89 638.05h-63.055c-4.25 0-7.6367-3.3867-7.6367-7.6367v-72.578c0-4.25 3.3867-7.6367 7.6367-7.6367h63.055c4.25 0 7.6367 3.3867 7.6367 7.6367v72.578c0 4.2539-3.3867 7.6367-7.6367 7.6367zm-55.418-15.27h47.781v-57.387h-47.781z"/>
 <path d="m224.3 638.05h-63.059c-4.25 0-7.6367-3.3867-7.6367-7.6367v-30.543c0-4.25 3.3867-7.6367 7.6367-7.6367h63.055c4.25 0 7.6367 3.3867 7.6367 7.6367v30.543c0 4.2539-3.3828 7.6367-7.6328 7.6367zm-55.422-15.27h47.781v-15.273h-47.781z"/>
 <path d="m208.95 365.83c-2.6758 0-5.2734-1.418-6.6914-3.9375l-17.16-30.699c-1.0234-1.7305-1.2578-3.8555-0.70703-5.8242s1.8906-3.6211 3.6211-4.5664l245.37-136.89-5.9023-10.625c-1.418-2.5977-1.2578-5.7461 0.47266-8.1875 1.7305-2.4414 4.6445-3.6211 7.6367-3.0703l57.309 10.785c2.2031 0.39453 4.1719 1.8125 5.2734 3.7773 1.1016 1.9688 1.2578 4.3281 0.47266 6.4531l-20.941 54.473c-1.1016 2.7539-3.6211 4.6445-6.6133 4.8789-2.9922 0.15625-5.7461-1.3398-7.2422-3.8555l-5.9023-10.547-245.29 136.9c-1.1797 0.62891-2.4414 0.94141-3.6992 0.94141zm-6.7695-35.422 9.7617 17.398 245.29-136.89c3.6992-2.0469 8.3438-0.70703 10.391 2.9141l1.6523 2.9922 11.809-30.699-32.273-6.0625 1.6523 2.9922c1.0234 1.7305 1.2578 3.8555 0.70703 5.8242-0.55078 1.9688-1.8906 3.6211-3.6211 4.5664z"/>
 <g clip-path="url(#b)">
  <path d="m620.81 439.04c-4.25 0-7.6367-3.3867-7.6367-7.6367s3.3867-7.6367 7.6367-7.6367c0.47266 0 0.78906 0 1.1016-0.078125v-0.86719-57.309c0-4.25 3.3867-7.6367 7.6367-7.6367 6.375 0 7.0859-5.9844 7.0859-8.582v-41.012c0-5.1172-3.6211-9.2109-8.1094-9.2109h-42.586c-4.4883 0-8.1094 4.1719-8.1094 9.2109v41.012c0 2.5977 0.70703 8.582 7.0859 8.582 4.25 0 7.6367 3.3867 7.6367 7.6367v57.309 0.86719c0.31641 0 0.62891 0.078125 1.1016 0.078125 4.25 0 7.6367 3.3867 7.6367 7.6367s-3.3867 7.6367-7.6367 7.6367c-10.391 0-16.375-5.9023-16.375-16.215v-50.934c-8.8945-3.0703-14.719-11.652-14.719-22.594v-41.012c0-13.539 10.469-24.48 23.379-24.48h42.586c12.91 0 23.379 11.02 23.379 24.48v41.012c0 10.941-5.9023 19.523-14.719 22.594v50.934c0 10.312-5.9844 16.215-16.375 16.215z"/>
 </g>
 <path d="m607.27 279.79c-15.586 0-28.262-12.676-28.262-28.262s12.676-28.262 28.262-28.262c15.586 0 28.262 12.676 28.262 28.262s-12.676 28.262-28.262 28.262zm0-41.25c-7.1641 0-12.988 5.8242-12.988 12.988s5.8242 12.988 12.988 12.988c7.1641 0 12.988-5.8242 12.988-12.988s-5.8242-12.988-12.988-12.988z"/>
 <path d="m517.13 478.48c-4.25 0-7.6367-3.3867-7.6367-7.6367s3.3867-7.6367 7.6367-7.6367c0.47266 0 0.78906 0 1.1016-0.078126v-0.86719-57.309c0-4.25 3.3867-7.6367 7.6367-7.6367 6.375 0 7.0859-5.9844 7.0859-8.582v-41.012c0-5.1172-3.6211-9.2109-8.1094-9.2109h-42.586c-4.4883 0-8.1094 4.1719-8.1094 9.2109v41.012c0 2.5977 0.70703 8.582 7.0859 8.582 4.25 0 7.6367 3.3867 7.6367 7.6367v57.309 0.86719c0.31641 0 0.62891 0.078126 1.1016 0.078126 4.25 0 7.6367 3.3867 7.6367 7.6367s-3.3867 7.6367-7.6367 7.6367c-10.391 0-16.375-5.9023-16.375-16.215v-50.934c-8.8945-3.0703-14.719-11.652-14.719-22.594v-41.012c0-13.539 10.469-24.48 23.379-24.48h42.586c12.91 0 23.379 11.02 23.379 24.48v41.012c0 10.941-5.9023 19.523-14.719 22.594v50.934c0.078126 10.309-5.9023 16.215-16.375 16.215z"/>
 <path d="m503.59 319.31c-15.586 0-28.262-12.676-28.262-28.262s12.676-28.262 28.262-28.262 28.262 12.676 28.262 28.262c0.078125 15.59-12.676 28.262-28.262 28.262zm0-41.246c-7.1641 0-12.988 5.8242-12.988 12.988 0 7.1641 5.8242 12.988 12.988 12.988s12.988-5.8242 12.988-12.988c0.078125-7.1641-5.8242-12.988-12.988-12.988z"/>
 <path d="m413.54 525.95c-4.25 0-7.6367-3.3867-7.6367-7.6367s3.3867-7.6367 7.6367-7.6367c0.47266 0 0.78906 0 1.1016-0.078125v-0.86719-57.309c0-4.25 3.3867-7.6367 7.6367-7.6367 6.375 0 7.0859-5.9844 7.0859-8.582v-41.012c0-5.1172-3.6211-9.2109-8.1094-9.2109h-42.586c-4.4883 0-8.1094 4.1719-8.1094 9.2109v41.012c0 2.5977 0.70703 8.582 7.0859 8.582 4.25 0 7.6367 3.3867 7.6367 7.6367v57.309 0.86719c0.31641 0 0.62891 0.078125 1.1016 0.078125 4.25 0 7.6367 3.3867 7.6367 7.6367-0.003906 4.2539-3.3086 7.6367-7.5625 7.6367-10.391 0-16.375-5.9023-16.375-16.215v-50.934c-8.8945-3.1484-14.719-11.652-14.719-22.594v-41.012c0-13.539 10.469-24.48 23.379-24.48h42.586c12.91 0 23.379 11.02 23.379 24.48v41.012c0 10.941-5.9023 19.523-14.719 22.594v50.934c-0.074219 10.312-6.0586 16.215-16.449 16.215z"/>
 <path d="m400 366.7c-15.586 0-28.262-12.676-28.262-28.262s12.676-28.262 28.262-28.262 28.262 12.676 28.262 28.262c-0.003907 15.59-12.676 28.262-28.262 28.262zm0-41.25c-7.1641 0-12.988 5.8242-12.988 12.988s5.8242 12.988 12.988 12.988 12.988-5.8242 12.988-12.988c0-7.1602-5.8281-12.988-12.988-12.988z"/>
 <path d="m309.94 565.39c-4.25 0-7.6367-3.3867-7.6367-7.6367s3.3867-7.6367 7.6367-7.6367c0.47266 0 0.78906 0 1.1016-0.078126v-0.86719-57.309c0-4.25 3.3867-7.6367 7.6367-7.6367 6.375 0 7.0859-5.9844 7.0859-8.582v-41.008c0-5.1172-3.6211-9.2109-8.1094-9.2109h-42.586c-4.4883 0-8.1094 4.1719-8.1094 9.2109v41.012c0 2.5977 0.70703 8.582 7.0859 8.582 4.25 0 7.6367 3.3867 7.6367 7.6367v57.309 0.86719c0.31641 0 0.62891 0.078125 1.1016 0.078125 4.25 0 7.6367 3.3867 7.6367 7.6367s-3.3867 7.6367-7.6367 7.6367c-10.391 0-16.375-5.9023-16.375-16.215v-50.934c-8.8945-3.0703-14.719-11.652-14.719-22.594v-41.016c0-13.539 10.469-24.48 23.379-24.48h42.586c12.91 0 23.379 11.02 23.379 24.48v41.012c0 10.941-5.9023 19.523-14.719 22.594v50.934c0 10.309-5.9844 16.215-16.375 16.215z"/>
 <path d="m296.4 406.22c-15.586 0-28.262-12.676-28.262-28.262 0-15.586 12.676-28.262 28.262-28.262 15.586 0 28.262 12.676 28.262 28.262 0 15.586-12.676 28.262-28.262 28.262zm0-41.25c-7.1641 0-12.988 5.8242-12.988 12.988 0 7.1641 5.8242 12.988 12.988 12.988 7.1641 0 12.988-5.8242 12.988-12.988 0-7.1641-5.8242-12.988-12.988-12.988z"/>
 <g clip-path="url(#a)">
  <path d="m206.27 607.5c-4.25 0-7.6367-3.3867-7.6367-7.6367s3.3867-7.6367 7.6367-7.6367c0.47266 0 0.78906 0 1.1016-0.078125v-0.86719-57.309c0-4.25 3.3867-7.6367 7.6367-7.6367 6.6133 0 7.0859-6.6133 7.0859-8.582v-41.012c0-5.1172-3.6211-9.2109-8.1094-9.2109l-42.512 0.003906c-4.4883 0-8.1094 4.1719-8.1094 9.2109v41.012c0 2.0469 0.47266 8.582 7.0859 8.582 4.25 0 7.6367 3.3867 7.6367 7.6367v57.309 0.86719c0.31641 0 0.62891 0.078125 1.1016 0.078125 4.25 0 7.6367 3.3867 7.6367 7.6367s-3.3867 7.6367-7.6367 7.6367c-10.391 0-16.375-5.9023-16.375-16.215v-50.934c-8.8164-3.0742-14.719-11.652-14.719-22.594v-41.012c0-13.539 10.469-24.48 23.379-24.48h42.586c12.91 0 23.379 11.02 23.379 24.48v41.012c0 10.941-5.9023 19.523-14.719 22.594v50.934c0 10.309-5.9805 16.211-16.449 16.211z"/>
 </g>
 <path d="m192.73 448.33c-15.586 0-28.262-12.676-28.262-28.262 0-15.586 12.676-28.262 28.262-28.262 15.586 0 28.262 12.676 28.262 28.262 0.078125 15.59-12.672 28.262-28.262 28.262zm0-41.328c-7.1641 0-12.988 5.8242-12.988 12.988 0 7.1641 5.8242 12.988 12.988 12.988 7.1641 0 12.988-5.8242 12.988-12.988 0.082031-7.082-5.7461-12.988-12.988-12.988z"/>
</svg>